<svg width="26" height="26" viewBox="0 0 26 26" fill="none" xmlns="http://www.w3.org/2000/svg">
<path d="M17 0H2.83333C1.275 0 0.0141667 1.275 0.0141667 2.83333L0 22.6667C0 24.225 1.26083 25.5 2.81917 25.5H22.6667C24.225 25.5 25.5 24.225 25.5 22.6667V8.5L17 0ZM2.83333 22.6667V2.83333H15.5833V9.91667H22.6667V22.6667H2.83333ZM8.5 7.08333C8.5 7.8625 7.8625 8.5 7.08333 8.5C6.30417 8.5 5.66667 7.8625 5.66667 7.08333C5.66667 6.30417 6.30417 5.66667 7.08333 5.66667C7.8625 5.66667 8.5 6.30417 8.5 7.08333ZM8.5 12.75C8.5 13.5292 7.8625 14.1667 7.08333 14.1667C6.30417 14.1667 5.66667 13.5292 5.66667 12.75C5.66667 11.9708 6.30417 11.3333 7.08333 11.3333C7.8625 11.3333 8.5 11.9708 8.5 12.75ZM8.5 18.4167C8.5 19.1958 7.8625 19.8333 7.08333 19.8333C6.30417 19.8333 5.66667 19.1958 5.66667 18.4167C5.66667 17.6375 6.30417 17 7.08333 17C7.8625 17 8.5 17.6375 8.5 18.4167Z" fill="#4B83F0"/>
</svg>
