<svg width="28" height="28" viewBox="0 0 28 28" fill="none" xmlns="http://www.w3.org/2000/svg">
<path d="M23.8995 23.8995C21.2553 26.5437 17.7397 28 14.0002 28H13.9998C10.2603 28 6.74472 26.5437 4.10049 23.8995C1.45627 21.2553 0 17.7395 0 14C0 10.2605 1.45627 6.74472 4.10049 4.10049C6.74472 1.45627 10.2605 0 14 0C17.7395 0 21.2553 1.45627 23.8995 4.10049C26.5437 6.74472 28 10.2605 28 14C28 17.7395 26.5437 21.2553 23.8995 23.8995ZM24.814 8.02176H20.7165C21.2655 9.63034 21.5962 11.372 21.6733 13.1797H26.3314C26.209 11.3186 25.6728 9.56903 24.814 8.02176ZM14 1.76196C12.2538 2.80103 10.8057 4.41153 9.76407 6.38113H18.2359C17.1943 4.41153 15.7462 2.80103 14 1.76196ZM9.02258 8.02176C8.41931 9.60449 8.05359 11.3521 7.96899 13.1797H20.031C19.9464 11.3521 19.5805 9.60449 18.9772 8.02176H9.02258ZM1.66861 13.1797H6.32666C6.40378 11.372 6.73447 9.63034 7.28348 8.02176H3.18597C2.32721 9.56903 1.79102 11.3186 1.66861 13.1797ZM3.18597 19.9782H7.28348C6.73447 18.3697 6.40378 16.628 6.32666 14.8203H1.66861C1.79102 16.6814 2.32721 18.431 3.18597 19.9782ZM14 26.238C15.7462 25.199 17.1943 23.5885 18.2359 21.6189H9.76407C10.8057 23.5885 12.2538 25.199 14 26.238ZM18.9774 19.9782C19.5807 18.3955 19.9464 16.6479 20.031 14.8203H7.96899C8.05359 16.6479 8.41953 18.3955 9.0228 19.9782H18.9774ZM26.3314 14.8203H21.6733C21.5962 16.628 21.2655 18.3697 20.7165 19.9782H24.814C25.6728 18.431 26.209 16.6814 26.3314 14.8203ZM20.0596 21.6189C19.2799 23.3031 18.2426 24.7914 16.9971 25.9911C19.7003 25.3152 22.0542 23.7474 23.7254 21.6189H20.0596ZM11.0029 25.9911C9.75745 24.7914 8.72009 23.3031 7.94037 21.6189H4.2746C5.94577 23.7474 8.29968 25.3152 11.0029 25.9911ZM7.94037 6.38113C8.72009 4.69693 9.75745 3.20862 11.0029 2.00891C8.29968 2.68481 5.94577 4.25259 4.2746 6.38113H7.94037ZM16.9971 2.00891C18.2426 3.20862 19.2799 4.69714 20.0596 6.38113H23.7254C22.0542 4.25259 19.7003 2.68481 16.9971 2.00891Z" fill="#4B83F0"/>
</svg>
